<mxfile host="app.diagrams.net" agent="Mozilla/5.0 (Macintosh; Intel Mac OS X 10_15_7) AppleWebKit/537.36 (KHTML, like Gecko) Chrome/131.0.0.0 Safari/537.36" version="24.8.2">
  <diagram name="Seite-1" id="x3OKeObT6cwDR5GEHmqI">
    <mxGraphModel dx="674" dy="430" grid="1" gridSize="10" guides="1" tooltips="1" connect="1" arrows="1" fold="1" page="1" pageScale="1" pageWidth="1169" pageHeight="827" math="0" shadow="0">
      <root>
        <mxCell id="0" />
        <mxCell id="1" parent="0" />
        <mxCell id="aQWUqDMuQiKBiyQsWNQK-42" value="" style="group;fillColor=#ffe6cc;strokeColor=#d79b00;" vertex="1" connectable="0" parent="1">
          <mxGeometry x="390" y="420" width="580" height="220" as="geometry" />
        </mxCell>
        <mxCell id="aQWUqDMuQiKBiyQsWNQK-43" value="" style="rounded=0;whiteSpace=wrap;html=1;fillColor=#f5f5f5;fontColor=#333333;strokeColor=#666666;" vertex="1" parent="aQWUqDMuQiKBiyQsWNQK-42">
          <mxGeometry width="580" height="220" as="geometry" />
        </mxCell>
        <mxCell id="aQWUqDMuQiKBiyQsWNQK-44" value="Logic" style="text;html=1;align=center;verticalAlign=middle;whiteSpace=wrap;rounded=0;" vertex="1" parent="aQWUqDMuQiKBiyQsWNQK-42">
          <mxGeometry width="580" height="20" as="geometry" />
        </mxCell>
        <mxCell id="aQWUqDMuQiKBiyQsWNQK-39" value="" style="group;fillColor=#ffe6cc;strokeColor=#d79b00;" vertex="1" connectable="0" parent="1">
          <mxGeometry x="390" y="340" width="380" height="60" as="geometry" />
        </mxCell>
        <mxCell id="aQWUqDMuQiKBiyQsWNQK-41" value="" style="group;fillColor=#ffe6cc;strokeColor=#d79b00;" vertex="1" connectable="0" parent="aQWUqDMuQiKBiyQsWNQK-39">
          <mxGeometry width="380" height="60" as="geometry" />
        </mxCell>
        <mxCell id="aQWUqDMuQiKBiyQsWNQK-37" value="" style="rounded=0;whiteSpace=wrap;html=1;fillColor=#f5f5f5;strokeColor=#666666;fontColor=#333333;" vertex="1" parent="aQWUqDMuQiKBiyQsWNQK-41">
          <mxGeometry width="380" height="60" as="geometry" />
        </mxCell>
        <mxCell id="aQWUqDMuQiKBiyQsWNQK-38" value="Storing" style="text;html=1;align=center;verticalAlign=middle;whiteSpace=wrap;rounded=0;" vertex="1" parent="aQWUqDMuQiKBiyQsWNQK-41">
          <mxGeometry width="380" height="20" as="geometry" />
        </mxCell>
        <mxCell id="aQWUqDMuQiKBiyQsWNQK-7" value="" style="edgeStyle=orthogonalEdgeStyle;rounded=0;orthogonalLoop=1;jettySize=auto;html=1;endArrow=none;endFill=0;startArrow=diamond;startFill=1;" edge="1" parent="1" source="aQWUqDMuQiKBiyQsWNQK-1" target="aQWUqDMuQiKBiyQsWNQK-5">
          <mxGeometry relative="1" as="geometry">
            <Array as="points">
              <mxPoint x="380" y="380" />
              <mxPoint x="380" y="460" />
            </Array>
          </mxGeometry>
        </mxCell>
        <mxCell id="aQWUqDMuQiKBiyQsWNQK-13" value="a" style="edgeStyle=orthogonalEdgeStyle;rounded=0;orthogonalLoop=1;jettySize=auto;html=1;endArrow=diamond;endFill=1;" edge="1" parent="1" source="aQWUqDMuQiKBiyQsWNQK-1" target="aQWUqDMuQiKBiyQsWNQK-11">
          <mxGeometry relative="1" as="geometry">
            <Array as="points">
              <mxPoint x="180" y="380" />
              <mxPoint x="180" y="340" />
              <mxPoint x="300" y="340" />
              <mxPoint x="300" y="300" />
            </Array>
          </mxGeometry>
        </mxCell>
        <mxCell id="aQWUqDMuQiKBiyQsWNQK-1" value="GameEngine" style="swimlane;fontStyle=1;align=center;verticalAlign=top;childLayout=stackLayout;horizontal=1;startSize=26;horizontalStack=0;resizeParent=1;resizeParentMax=0;resizeLast=0;collapsible=1;marginBottom=0;whiteSpace=wrap;html=1;fillColor=#dae8fc;strokeColor=#6c8ebf;" vertex="1" parent="1">
          <mxGeometry x="200" y="360" width="160" height="34" as="geometry" />
        </mxCell>
        <mxCell id="aQWUqDMuQiKBiyQsWNQK-3" value="" style="line;strokeWidth=1;fillColor=none;align=left;verticalAlign=middle;spacingTop=-1;spacingLeft=3;spacingRight=3;rotatable=0;labelPosition=right;points=[];portConstraint=eastwest;strokeColor=inherit;" vertex="1" parent="aQWUqDMuQiKBiyQsWNQK-1">
          <mxGeometry y="26" width="160" height="8" as="geometry" />
        </mxCell>
        <mxCell id="aQWUqDMuQiKBiyQsWNQK-5" value="GameField" style="swimlane;fontStyle=1;align=center;verticalAlign=top;childLayout=stackLayout;horizontal=1;startSize=26;horizontalStack=0;resizeParent=1;resizeParentMax=0;resizeLast=0;collapsible=1;marginBottom=0;whiteSpace=wrap;html=1;fillColor=#dae8fc;strokeColor=#6c8ebf;" vertex="1" parent="1">
          <mxGeometry x="400" y="440" width="160" height="34" as="geometry" />
        </mxCell>
        <mxCell id="aQWUqDMuQiKBiyQsWNQK-6" value="" style="line;strokeWidth=1;fillColor=none;align=left;verticalAlign=middle;spacingTop=-1;spacingLeft=3;spacingRight=3;rotatable=0;labelPosition=right;points=[];portConstraint=eastwest;strokeColor=inherit;" vertex="1" parent="aQWUqDMuQiKBiyQsWNQK-5">
          <mxGeometry y="26" width="160" height="8" as="geometry" />
        </mxCell>
        <mxCell id="aQWUqDMuQiKBiyQsWNQK-10" style="edgeStyle=orthogonalEdgeStyle;rounded=0;orthogonalLoop=1;jettySize=auto;html=1;endArrow=diamond;endFill=1;" edge="1" parent="1" source="aQWUqDMuQiKBiyQsWNQK-8" target="aQWUqDMuQiKBiyQsWNQK-1">
          <mxGeometry relative="1" as="geometry">
            <Array as="points">
              <mxPoint x="380" y="380" />
              <mxPoint x="380" y="380" />
            </Array>
          </mxGeometry>
        </mxCell>
        <mxCell id="aQWUqDMuQiKBiyQsWNQK-8" value="FileStorageHandler" style="swimlane;fontStyle=1;align=center;verticalAlign=top;childLayout=stackLayout;horizontal=1;startSize=26;horizontalStack=0;resizeParent=1;resizeParentMax=0;resizeLast=0;collapsible=1;marginBottom=0;whiteSpace=wrap;html=1;fillColor=#dae8fc;strokeColor=#6c8ebf;" vertex="1" parent="1">
          <mxGeometry x="400" y="360" width="160" height="34" as="geometry" />
        </mxCell>
        <mxCell id="aQWUqDMuQiKBiyQsWNQK-9" value="" style="line;strokeWidth=1;fillColor=none;align=left;verticalAlign=middle;spacingTop=-1;spacingLeft=3;spacingRight=3;rotatable=0;labelPosition=right;points=[];portConstraint=eastwest;strokeColor=inherit;" vertex="1" parent="aQWUqDMuQiKBiyQsWNQK-8">
          <mxGeometry y="26" width="160" height="8" as="geometry" />
        </mxCell>
        <mxCell id="aQWUqDMuQiKBiyQsWNQK-11" value="GameViewModel" style="swimlane;fontStyle=1;align=center;verticalAlign=top;childLayout=stackLayout;horizontal=1;startSize=26;horizontalStack=0;resizeParent=1;resizeParentMax=0;resizeLast=0;collapsible=1;marginBottom=0;whiteSpace=wrap;html=1;fillColor=#fff2cc;strokeColor=#d6b656;" vertex="1" parent="1">
          <mxGeometry x="120" y="280" width="160" height="34" as="geometry" />
        </mxCell>
        <mxCell id="aQWUqDMuQiKBiyQsWNQK-12" value="" style="line;strokeWidth=1;fillColor=none;align=left;verticalAlign=middle;spacingTop=-1;spacingLeft=3;spacingRight=3;rotatable=0;labelPosition=right;points=[];portConstraint=eastwest;strokeColor=inherit;" vertex="1" parent="aQWUqDMuQiKBiyQsWNQK-11">
          <mxGeometry y="26" width="160" height="8" as="geometry" />
        </mxCell>
        <mxCell id="aQWUqDMuQiKBiyQsWNQK-16" style="edgeStyle=orthogonalEdgeStyle;rounded=0;orthogonalLoop=1;jettySize=auto;html=1;endArrow=open;endFill=0;" edge="1" parent="1" source="aQWUqDMuQiKBiyQsWNQK-14" target="aQWUqDMuQiKBiyQsWNQK-11">
          <mxGeometry relative="1" as="geometry">
            <Array as="points">
              <mxPoint x="220" y="217" />
              <mxPoint x="220" y="260" />
              <mxPoint x="100" y="260" />
              <mxPoint x="100" y="300" />
            </Array>
          </mxGeometry>
        </mxCell>
        <mxCell id="aQWUqDMuQiKBiyQsWNQK-14" value="GameView" style="swimlane;fontStyle=1;align=center;verticalAlign=top;childLayout=stackLayout;horizontal=1;startSize=26;horizontalStack=0;resizeParent=1;resizeParentMax=0;resizeLast=0;collapsible=1;marginBottom=0;whiteSpace=wrap;html=1;fillColor=#f8cecc;strokeColor=#b85450;" vertex="1" parent="1">
          <mxGeometry x="40" y="200" width="160" height="34" as="geometry" />
        </mxCell>
        <mxCell id="aQWUqDMuQiKBiyQsWNQK-15" value="" style="line;strokeWidth=1;fillColor=none;align=left;verticalAlign=middle;spacingTop=-1;spacingLeft=3;spacingRight=3;rotatable=0;labelPosition=right;points=[];portConstraint=eastwest;strokeColor=inherit;" vertex="1" parent="aQWUqDMuQiKBiyQsWNQK-14">
          <mxGeometry y="26" width="160" height="8" as="geometry" />
        </mxCell>
        <mxCell id="aQWUqDMuQiKBiyQsWNQK-25" style="edgeStyle=orthogonalEdgeStyle;rounded=0;orthogonalLoop=1;jettySize=auto;html=1;endArrow=diamond;endFill=1;" edge="1" parent="1" source="aQWUqDMuQiKBiyQsWNQK-17" target="aQWUqDMuQiKBiyQsWNQK-5">
          <mxGeometry relative="1" as="geometry">
            <Array as="points">
              <mxPoint x="580" y="617" />
              <mxPoint x="580" y="457" />
            </Array>
          </mxGeometry>
        </mxCell>
        <mxCell id="aQWUqDMuQiKBiyQsWNQK-17" value="FluidLogic" style="swimlane;fontStyle=1;align=center;verticalAlign=top;childLayout=stackLayout;horizontal=1;startSize=26;horizontalStack=0;resizeParent=1;resizeParentMax=0;resizeLast=0;collapsible=1;marginBottom=0;whiteSpace=wrap;html=1;fillColor=#dae8fc;strokeColor=#6c8ebf;" vertex="1" parent="1">
          <mxGeometry x="600" y="600" width="160" height="34" as="geometry" />
        </mxCell>
        <mxCell id="aQWUqDMuQiKBiyQsWNQK-18" value="" style="line;strokeWidth=1;fillColor=none;align=left;verticalAlign=middle;spacingTop=-1;spacingLeft=3;spacingRight=3;rotatable=0;labelPosition=right;points=[];portConstraint=eastwest;strokeColor=inherit;" vertex="1" parent="aQWUqDMuQiKBiyQsWNQK-17">
          <mxGeometry y="26" width="160" height="8" as="geometry" />
        </mxCell>
        <mxCell id="aQWUqDMuQiKBiyQsWNQK-19" value="CellFunctions" style="swimlane;fontStyle=1;align=center;verticalAlign=top;childLayout=stackLayout;horizontal=1;startSize=26;horizontalStack=0;resizeParent=1;resizeParentMax=0;resizeLast=0;collapsible=1;marginBottom=0;whiteSpace=wrap;html=1;fillColor=#dae8fc;strokeColor=#6c8ebf;" vertex="1" parent="1">
          <mxGeometry x="600" y="520" width="160" height="34" as="geometry" />
        </mxCell>
        <mxCell id="aQWUqDMuQiKBiyQsWNQK-20" value="" style="line;strokeWidth=1;fillColor=none;align=left;verticalAlign=middle;spacingTop=-1;spacingLeft=3;spacingRight=3;rotatable=0;labelPosition=right;points=[];portConstraint=eastwest;strokeColor=inherit;" vertex="1" parent="aQWUqDMuQiKBiyQsWNQK-19">
          <mxGeometry y="26" width="160" height="8" as="geometry" />
        </mxCell>
        <mxCell id="aQWUqDMuQiKBiyQsWNQK-23" style="edgeStyle=orthogonalEdgeStyle;rounded=0;orthogonalLoop=1;jettySize=auto;html=1;endArrow=diamond;endFill=1;" edge="1" parent="1" source="aQWUqDMuQiKBiyQsWNQK-21" target="aQWUqDMuQiKBiyQsWNQK-5">
          <mxGeometry relative="1" as="geometry" />
        </mxCell>
        <mxCell id="aQWUqDMuQiKBiyQsWNQK-45" style="edgeStyle=orthogonalEdgeStyle;rounded=0;orthogonalLoop=1;jettySize=auto;html=1;endArrow=block;endFill=0;" edge="1" parent="1" source="aQWUqDMuQiKBiyQsWNQK-21" target="aQWUqDMuQiKBiyQsWNQK-19">
          <mxGeometry relative="1" as="geometry" />
        </mxCell>
        <mxCell id="aQWUqDMuQiKBiyQsWNQK-21" value="CellField" style="swimlane;fontStyle=1;align=center;verticalAlign=top;childLayout=stackLayout;horizontal=1;startSize=26;horizontalStack=0;resizeParent=1;resizeParentMax=0;resizeLast=0;collapsible=1;marginBottom=0;whiteSpace=wrap;html=1;fillColor=#dae8fc;strokeColor=#6c8ebf;" vertex="1" parent="1">
          <mxGeometry x="600" y="440" width="160" height="34" as="geometry" />
        </mxCell>
        <mxCell id="aQWUqDMuQiKBiyQsWNQK-22" value="" style="line;strokeWidth=1;fillColor=none;align=left;verticalAlign=middle;spacingTop=-1;spacingLeft=3;spacingRight=3;rotatable=0;labelPosition=right;points=[];portConstraint=eastwest;strokeColor=inherit;" vertex="1" parent="aQWUqDMuQiKBiyQsWNQK-21">
          <mxGeometry y="26" width="160" height="8" as="geometry" />
        </mxCell>
        <mxCell id="aQWUqDMuQiKBiyQsWNQK-28" style="edgeStyle=orthogonalEdgeStyle;rounded=0;orthogonalLoop=1;jettySize=auto;html=1;endArrow=diamond;endFill=1;" edge="1" parent="1" source="aQWUqDMuQiKBiyQsWNQK-26" target="aQWUqDMuQiKBiyQsWNQK-8">
          <mxGeometry relative="1" as="geometry">
            <Array as="points">
              <mxPoint x="580" y="380" />
              <mxPoint x="580" y="380" />
            </Array>
          </mxGeometry>
        </mxCell>
        <mxCell id="aQWUqDMuQiKBiyQsWNQK-26" value="SQLiteConnection" style="swimlane;fontStyle=1;align=center;verticalAlign=top;childLayout=stackLayout;horizontal=1;startSize=26;horizontalStack=0;resizeParent=1;resizeParentMax=0;resizeLast=0;collapsible=1;marginBottom=0;whiteSpace=wrap;html=1;fillColor=#dae8fc;strokeColor=#6c8ebf;" vertex="1" parent="1">
          <mxGeometry x="600" y="360" width="160" height="34" as="geometry" />
        </mxCell>
        <mxCell id="aQWUqDMuQiKBiyQsWNQK-27" value="" style="line;strokeWidth=1;fillColor=none;align=left;verticalAlign=middle;spacingTop=-1;spacingLeft=3;spacingRight=3;rotatable=0;labelPosition=right;points=[];portConstraint=eastwest;strokeColor=inherit;" vertex="1" parent="aQWUqDMuQiKBiyQsWNQK-26">
          <mxGeometry y="26" width="160" height="8" as="geometry" />
        </mxCell>
        <mxCell id="aQWUqDMuQiKBiyQsWNQK-30" value="&lt;h1 style=&quot;margin-top: 0px;&quot;&gt;Floodpipe 2 WPF&lt;/h1&gt;&lt;p&gt;A modern remake of Floodpipe, developed in C# using WPF.&amp;nbsp;&lt;span style=&quot;background-color: initial;&quot;&gt;Floodpipe is a strategic puzzle game where players navigate water flow through interconnected pipes to solve challenges. This remake builds upon the original concept with enhanced features and modern design.&lt;/span&gt;&lt;/p&gt;" style="text;html=1;whiteSpace=wrap;overflow=hidden;rounded=0;" vertex="1" parent="1">
          <mxGeometry x="40" y="40" width="1080" height="120" as="geometry" />
        </mxCell>
        <mxCell id="aQWUqDMuQiKBiyQsWNQK-33" style="edgeStyle=orthogonalEdgeStyle;rounded=0;orthogonalLoop=1;jettySize=auto;html=1;endArrow=diamond;endFill=1;" edge="1" parent="1" source="aQWUqDMuQiKBiyQsWNQK-31" target="aQWUqDMuQiKBiyQsWNQK-21">
          <mxGeometry relative="1" as="geometry" />
        </mxCell>
        <mxCell id="aQWUqDMuQiKBiyQsWNQK-31" value="Cell" style="swimlane;fontStyle=1;align=center;verticalAlign=top;childLayout=stackLayout;horizontal=1;startSize=26;horizontalStack=0;resizeParent=1;resizeParentMax=0;resizeLast=0;collapsible=1;marginBottom=0;whiteSpace=wrap;html=1;fillColor=#dae8fc;strokeColor=#6c8ebf;" vertex="1" parent="1">
          <mxGeometry x="800" y="440" width="160" height="34" as="geometry" />
        </mxCell>
        <mxCell id="aQWUqDMuQiKBiyQsWNQK-32" value="" style="line;strokeWidth=1;fillColor=none;align=left;verticalAlign=middle;spacingTop=-1;spacingLeft=3;spacingRight=3;rotatable=0;labelPosition=right;points=[];portConstraint=eastwest;strokeColor=inherit;" vertex="1" parent="aQWUqDMuQiKBiyQsWNQK-31">
          <mxGeometry y="26" width="160" height="8" as="geometry" />
        </mxCell>
      </root>
    </mxGraphModel>
  </diagram>
</mxfile>
